<svg xmlns="http://www.w3.org/2000/svg" width="1200" height="900" viewBox="0 0 1200 900">
<defs>
 <linearGradient id="bg" x1="0" y1="0" x2="1" y2="1"><stop stop-color="#2a0a72"/><stop offset="1" stop-color="#5d1fd2"/></linearGradient>
 <linearGradient id="box" x1="0" y1="0" x2="1" y2="1"><stop stop-color="#6f2bd4"/><stop offset="1" stop-color="#37107c"/></linearGradient>
 <linearGradient id="gold" x1="0" y1="0" x2="1" y2="1"><stop stop-color="#ffd84b"/><stop offset="1" stop-color="#ff9f1c"/></linearGradient>
 <filter id="shadow" x="-30%" y="-30%" width="160%" height="160%"><feDropShadow dx="0" dy="18" stdDeviation="18" flood-color="#11042f" flood-opacity=".35"/></filter>
</defs>
<rect width="1200" height="900" rx="60" fill="url(#bg)"/>
<circle cx="180" cy="165" r="110" fill="#fff" opacity=".07"/><circle cx="1020" cy="170" r="140" fill="#ffd84b" opacity=".12"/>
<g fill="#ffd84b" opacity=".95"><path d="M100 130l12 30 32 5-24 21 7 31-27-16-27 16 7-31-24-21 32-5z"/><path d="M1060 100l8 20 22 3-16 15 5 21-19-11-19 11 5-21-16-15 22-3z"/><path d="M1040 650l7 18 20 3-15 13 5 20-17-10-17 10 5-20-15-13 20-3z"/></g>
<!-- papers -->
<g filter="url(#shadow)" font-family="Arial, sans-serif" font-weight="700">
 <g transform="translate(300 135) rotate(-12)"><rect width="250" height="330" rx="18" fill="#fff"/><rect x="20" y="22" width="210" height="44" rx="10" fill="#fff3cc"/><text x="125" y="52" text-anchor="middle" font-size="25" fill="#37206f">VULCÃO CASEIRO</text><path d="M60 250L125 100l65 150z" fill="#7b4b2a"/><path d="M98 175l27-75 30 75z" fill="#ff6b35"/><circle cx="126" cy="88" r="18" fill="#ffcf2f"/></g>
 <g transform="translate(480 85) rotate(5)"><rect width="250" height="330" rx="18" fill="#fff"/><rect x="20" y="22" width="210" height="44" rx="10" fill="#e7f8ff"/><text x="125" y="52" text-anchor="middle" font-size="25" fill="#37206f">LABIRINTO</text><path d="M45 100h160v160H45z" fill="none" stroke="#36a3ff" stroke-width="9"/><path d="M60 120h55v35H85v55h65v-30h45v60h-95v-45H60z" fill="none" stroke="#6b5be5" stroke-width="8" stroke-linejoin="round"/></g>
 <g transform="translate(675 120) rotate(11)"><rect width="250" height="330" rx="18" fill="#fff"/><rect x="20" y="22" width="210" height="44" rx="10" fill="#fff0f7"/><text x="125" y="52" text-anchor="middle" font-size="24" fill="#37206f">CAÇA AO TESOURO</text><path d="M55 120c45-20 95-10 140 10v120c-45-20-95-30-140-10z" fill="#f1d39a" stroke="#b3813d" stroke-width="5"/><path d="M75 145c50 20 80 8 105 45-20 5-45 25-65 40" fill="none" stroke="#c63854" stroke-width="8" stroke-dasharray="10 10"/><circle cx="110" cy="220" r="12" fill="#e33b64"/></g>
</g>
<!-- pencils & rocket -->
<g transform="translate(850 315) rotate(17)" filter="url(#shadow)"><path d="M0 180C35 65 85 20 135 0c20 55 10 120-35 200z" fill="#f5f7ff" stroke="#3d3a9c" stroke-width="8"/><circle cx="90" cy="72" r="24" fill="#25b8ff" stroke="#3d3a9c" stroke-width="8"/><path d="M35 165L-5 210l52-10M95 185l18 55 36-52" fill="#ff3b72" stroke="#3d3a9c" stroke-width="8"/><path d="M55 205c10 35 10 55-5 82 30-12 48-34 53-68" fill="#ffb31a"/></g>
<g filter="url(#shadow)"><rect x="260" y="420" width="690" height="330" rx="42" fill="url(#box)" stroke="#ffce3a" stroke-width="10"/><rect x="260" y="420" width="690" height="78" rx="36" fill="#8b43f2" opacity=".55"/><rect x="330" y="520" width="550" height="140" rx="28" fill="#4a178e"/><text x="605" y="575" text-anchor="middle" font-family="Arial, sans-serif" font-weight="900" font-size="64" fill="#fff">ARQUIVO</text><text x="605" y="635" text-anchor="middle" font-family="Arial, sans-serif" font-weight="900" font-size="72" fill="#ffd63a">MÁGICO</text><rect x="440" y="660" width="330" height="50" rx="25" fill="url(#gold)"/><text x="605" y="694" text-anchor="middle" font-family="Arial, sans-serif" font-weight="900" font-size="28" fill="#2b115a">DAS CRIANÇAS</text></g>
<!-- supplies -->
<g stroke="#291154" stroke-width="5" filter="url(#shadow)"><rect x="285" y="300" width="28" height="200" rx="12" fill="#ff4b7d" transform="rotate(-12 285 300)"/><rect x="330" y="285" width="28" height="220" rx="12" fill="#20c997" transform="rotate(-7 330 285)"/><rect x="790" y="300" width="28" height="220" rx="12" fill="#ffca28" transform="rotate(10 790 300)"/><rect x="835" y="325" width="28" height="190" rx="12" fill="#4da3ff" transform="rotate(13 835 325)"/></g>
<g transform="translate(560 360)" filter="url(#shadow)"><ellipse cx="90" cy="60" rx="95" ry="70" fill="#f0c04a"/><circle cx="55" cy="45" r="15" fill="#f44336"/><circle cx="85" cy="25" r="15" fill="#4caf50"/><circle cx="120" cy="35" r="15" fill="#2196f3"/><circle cx="140" cy="65" r="15" fill="#9c27b0"/><circle cx="95" cy="85" r="15" fill="#ff9800"/><circle cx="45" cy="80" r="15" fill="#ffeb3b"/></g>
</svg>